<?xml version="1.0" standalone="no"?>
<!DOCTYPE svg PUBLIC "-//W3C//DTD SVG 1.1//EN" "http://www.w3.org/Graphics/SVG/1.1/DTD/svg11.dtd" >
<svg xmlns="http://www.w3.org/2000/svg">
<metadata>Generated by IcoMoon</metadata>
<defs>
<font id="icomoon" horiz-adv-x="1024">
<font-face units-per-em="1024" ascent="960" descent="-64" />
<missing-glyph horiz-adv-x="1024" />
<glyph unicode="&#x20;" horiz-adv-x="512" d="" />
<glyph unicode="&#xe900;" glyph-name="ic_check_box_24px" d="M810.667 832h-597.333c-47.36 0-85.333-38.4-85.333-85.333v-597.333c0-46.933 37.973-85.333 85.333-85.333h597.333c47.36 0 85.333 38.4 85.333 85.333v597.333c0 46.933-37.973 85.333-85.333 85.333zM426.667 234.667l-213.333 213.333 60.16 60.16 153.173-152.747 323.84 323.84 60.16-60.587-384-384z" />
<glyph unicode="&#xe901;" glyph-name="ic_check_box_outline_blank_24px" d="M810.667 746.667v-597.333h-597.333v597.333h597.333zM810.667 832h-597.333c-46.933 0-85.333-38.4-85.333-85.333v-597.333c0-46.933 38.4-85.333 85.333-85.333h597.333c46.933 0 85.333 38.4 85.333 85.333v597.333c0 46.933-38.4 85.333-85.333 85.333z" />
<glyph unicode="&#xe902;" glyph-name="ic_chevron_double_left_24px" d="M828.16 643.84l-60.16 60.16-256-256 256-256 60.16 60.16-195.413 195.84zM486.827 643.84l-60.16 60.16-256-256 256-256 60.16 60.16-195.413 195.84z" />
<glyph unicode="&#xe903;" glyph-name="ic_chevron_double_right_24px" d="M512 643.84l60.16 60.16 256-256-256-256-60.16 60.16 195.413 195.84zM170.667 643.84l60.16 60.16 256-256-256-256-60.16 60.16 195.413 195.84z" />
<glyph unicode="&#xe904;" glyph-name="ic_chevron_left_24px" d="M657.493 643.84l-60.16 60.16-256-256 256-256 60.16 60.16-195.413 195.84z" />
<glyph unicode="&#xe905;" glyph-name="ic_chevron_right_24px" d="M426.667 704l-60.16-60.16 195.413-195.84-195.413-195.84 60.16-60.16 256 256z" />
<glyph unicode="&#xe906;" glyph-name="ic_close_24px" d="M810.667 686.507l-60.16 60.16-238.507-238.507-238.507 238.507-60.16-60.16 238.507-238.507-238.507-238.507 60.16-60.16 238.507 238.507 238.507-238.507 60.16 60.16-238.507 238.507z" />
<glyph unicode="&#xe907;" glyph-name="ic_contact_mail_24px" d="M896 618.667v42.667l-128-85.333-128 85.333v-42.667l128-85.333 128 85.333zM938.667 832h-853.333c-46.933 0-85.333-38.4-85.333-85.333v-597.333c0-46.933 38.4-85.333 85.333-85.333h853.333c46.933 0 84.907 38.4 84.907 85.333l0.427 597.333c0 46.933-38.4 85.333-85.333 85.333zM341.333 704c70.827 0 128-57.173 128-128s-57.173-128-128-128-128 57.173-128 128 57.173 128 128 128zM597.333 192h-512v42.667c0 85.333 170.667 132.267 256 132.267s256-46.933 256-132.267v-42.667zM938.667 448h-341.333v256h341.333v-256z" />
<glyph unicode="&#xe908;" glyph-name="ic_description_24px" d="M597.333 874.667h-341.333c-46.933 0-84.907-38.4-84.907-85.333l-0.427-682.667c0-46.933 37.973-85.333 84.907-85.333h512.427c46.933 0 85.333 38.4 85.333 85.333v512l-256 256zM682.667 192h-341.333v85.333h341.333v-85.333zM682.667 362.667h-341.333v85.333h341.333v-85.333zM554.667 576v234.667l234.667-234.667h-234.667z" />
<glyph unicode="&#xe909;" glyph-name="ic_expand_less_24px" d="M512 618.667l-256-256 60.16-60.16 195.84 195.413 195.84-195.413 60.16 60.16z" />
<glyph unicode="&#xe90a;" glyph-name="ic_expand_more_24px" d="M707.84 593.493l-195.84-195.413-195.84 195.413-60.16-60.16 256-256 256 256z" />
<glyph unicode="&#xe90b;" glyph-name="ic_facebook_24px" d="M704 426.667h-115.2v-405.333h-170.667v405.333h-76.8v140.8h81.067v93.867c0 68.267 29.867 170.667 170.667 170.667h123.733v-140.8h-89.6c-8.533 0-21.333-4.267-25.6-12.8-8.533-8.533-8.533-17.067-8.533-29.867v-85.333h128l-17.067-136.533z" />
<glyph unicode="&#xe90c;" glyph-name="ic_folder_24px" d="M426.667 789.333h-256c-46.933 0-84.907-38.4-84.907-85.333l-0.427-512c0-46.933 38.4-85.333 85.333-85.333h682.667c46.933 0 85.333 38.4 85.333 85.333v426.667c0 46.933-38.4 85.333-85.333 85.333h-341.333l-85.333 85.333z" />
<glyph unicode="&#xe90d;" glyph-name="ic_insert_drive_file_24px" d="M256 874.667c-46.933 0-84.907-38.4-84.907-85.333l-0.427-682.667c0-46.933 37.973-85.333 84.907-85.333h512.427c46.933 0 85.333 38.4 85.333 85.333v512l-256 256h-341.333zM554.667 576v234.667l234.667-234.667h-234.667z" />
<glyph unicode="&#xe90e;" glyph-name="ic_insert_invitation_24px" d="M725.333 448h-213.333v-213.333h213.333v213.333zM682.667 917.333v-85.333h-341.333v85.333h-85.333v-85.333h-42.667c-47.36 0-84.907-38.4-84.907-85.333l-0.427-597.333c0-46.933 37.973-85.333 85.333-85.333h597.333c46.933 0 85.333 38.4 85.333 85.333v597.333c0 46.933-38.4 85.333-85.333 85.333h-42.667v85.333h-85.333zM810.667 149.333h-597.333v469.333h597.333v-469.333z" />
<glyph unicode="&#xe90f;" glyph-name="ic_library_books_24px" d="M170.667 704h-85.333v-597.333c0-46.933 38.4-85.333 85.333-85.333h597.333v85.333h-597.333v597.333zM853.333 874.667h-512c-46.933 0-85.333-38.4-85.333-85.333v-512c0-46.933 38.4-85.333 85.333-85.333h512c46.933 0 85.333 38.4 85.333 85.333v512c0 46.933-38.4 85.333-85.333 85.333zM810.667 490.667h-426.667v85.333h426.667v-85.333zM640 320h-256v85.333h256v-85.333zM810.667 661.333h-426.667v85.333h426.667v-85.333z" />
<glyph unicode="&#xe910;" glyph-name="ic_menu_24px" d="M128 192h768v85.333h-768v-85.333zM128 405.333h768v85.333h-768v-85.333zM128 704v-85.333h768v85.333h-768z" />
<glyph unicode="&#xe911;" glyph-name="ic_pan_tool_24px" d="M981.333 725.333v-618.667c0-93.867-76.8-170.667-170.667-170.667h-311.467c-46.080 0-89.6 18.347-121.6 50.773l-334.933 340.48s53.76 52.48 55.467 53.333c9.387 8.107 20.907 12.373 33.707 12.373 9.387 0 17.92-2.56 25.6-6.827 1.707-0.427 183.893-104.96 183.893-104.96v508.16c0 35.413 28.587 64 64 64s64-28.587 64-64v-298.667h42.667v405.333c0 35.413 28.587 64 64 64s64-28.587 64-64v-405.333h42.667v362.667c0 35.413 28.587 64 64 64s64-28.587 64-64v-362.667h42.667v234.667c0 35.413 28.587 64 64 64s64-28.587 64-64z" />
<glyph unicode="&#xe912;" glyph-name="ic_phone_24px" d="M282.453 499.627c61.44-120.747 160.427-219.307 281.173-281.173l93.867 93.867c11.52 11.52 28.587 15.36 43.52 10.24 47.787-15.787 99.413-24.32 152.32-24.32 23.467 0 42.667-19.2 42.667-42.667v-148.907c0-23.467-19.2-42.667-42.667-42.667-400.64 0-725.333 324.693-725.333 725.333 0 23.467 19.2 42.667 42.667 42.667h149.333c23.467 0 42.667-19.2 42.667-42.667 0-53.333 8.533-104.533 24.32-152.32 4.693-14.933 1.28-31.573-10.667-43.52l-93.867-93.867z" />
<glyph unicode="&#xe913;" glyph-name="ic_play_arrow_24px" d="M341.333 746.667v-597.333l469.333 298.667z" />
<glyph unicode="&#xe914;" glyph-name="ic_play_circle_filled_24px" d="M512 874.667c-235.52 0-426.667-191.147-426.667-426.667s191.147-426.667 426.667-426.667 426.667 191.147 426.667 426.667-191.147 426.667-426.667 426.667zM426.667 256v384l256-192-256-192z" />
<glyph unicode="&#xe915;" glyph-name="ic_room_24px" d="M512 874.667c-165.12 0-298.667-133.547-298.667-298.667 0-224 298.667-554.667 298.667-554.667s298.667 330.667 298.667 554.667c0 165.12-133.547 298.667-298.667 298.667zM512 469.333c-58.88 0-106.667 47.787-106.667 106.667s47.787 106.667 106.667 106.667 106.667-47.787 106.667-106.667-47.787-106.667-106.667-106.667z" />
<glyph unicode="&#xe916;" glyph-name="ic_search_24px" d="M269.572 418.897c-75.136 75.136-75.136 196.437 0 271.531 75.136 75.136 196.437 75.136 271.531 0 75.136-75.093 75.136-196.395 0-271.531-75.093-75.136-196.395-75.136-271.531 0v0zM873.178 147.153l-244.139 244.139c79.403 108.501 70.443 261.461-27.605 359.467-108.288 108.331-283.861 108.331-392.192 0-108.331-108.288-108.331-283.861 0-392.192 48.555-48.597 111.019-75.435 174.976-80.256h42.24c50.389 3.797 99.584 21.803 142.080 52.821l244.267-244.309 60.373 60.331z" />
<glyph unicode="&#xe917;" glyph-name="ic_star_24px" d="M512 223.147l263.68-159.147-69.973 299.947 232.96 201.813-306.773 26.027-119.893 282.88-119.893-282.88-306.773-26.027 232.96-201.813-69.973-299.947z" />
<glyph unicode="&#xe918;" glyph-name="ic_star_border_24px" d="M938.667 565.76l-306.773 26.453-119.893 282.453-119.893-282.88-306.773-26.027 232.96-201.813-69.973-299.947 263.68 159.147 263.68-159.147-69.547 299.947 232.533 201.813zM512 302.933l-160.427-96.853 42.667 182.613-141.653 122.88 186.88 16.213 72.533 171.947 72.96-172.373 186.88-16.213-141.653-122.88 42.667-182.613-160.853 97.28z" />
<glyph unicode="&#xe919;" glyph-name="ic_supervisor_account_24px" d="M704 448c58.88 0 106.24 47.787 106.24 106.667s-47.36 106.667-106.24 106.667c-58.88 0-106.667-47.787-106.667-106.667s47.787-106.667 106.667-106.667zM384 490.667c70.827 0 127.573 57.173 127.573 128s-56.747 128-127.573 128c-70.827 0-128-57.173-128-128s57.173-128 128-128zM704 362.667c-78.080 0-234.667-39.253-234.667-117.333v-96h469.333v96c0 78.080-156.587 117.333-234.667 117.333zM384 405.333c-99.413 0-298.667-49.92-298.667-149.333v-106.667h298.667v96c0 36.267 14.080 99.84 101.12 148.053-37.12 7.68-72.96 11.947-101.12 11.947z" />
<glyph unicode="&#xe91a;" glyph-name="ic_twitter_24px" d="M874.667 776.533c-29.867-17.067-64-29.867-98.133-38.4-29.867 29.867-72.533 51.2-115.2 51.2-85.333 0-157.867-72.533-157.867-162.133 0-12.8 0-25.6 4.267-38.4-132.267 8.533-247.467 72.533-324.267 170.667-12.8-25.6-21.333-51.2-21.333-81.067 0-55.467 29.867-106.667 68.267-136.533-25.6 0-51.2 8.533-72.533 21.333v0c0-76.8 55.467-145.067 128-157.867-12.8-4.267-25.6-4.267-42.667-4.267-8.533 0-21.333 0-29.867 4.267 21.333-64 76.8-110.933 145.067-110.933-55.467-42.667-123.733-68.267-196.267-68.267-12.8 0-25.6 0-38.4 4.267 68.267-46.933 153.6-72.533 243.2-72.533 290.133 0 448 247.467 448 460.8 0 8.533 0 12.8 0 21.333 29.867 21.333 55.467 51.2 76.8 85.333-29.867-12.8-59.733-21.333-89.6-25.6 34.133 8.533 59.733 38.4 72.533 76.8z" />
<glyph unicode="&#xe91b;" glyph-name="ic_voice_chat_24px" d="M853.333 874.667h-682.667c-46.933 0-84.907-38.4-84.907-85.333l-0.427-768 170.667 170.667h597.333c46.933 0 85.333 38.4 85.333 85.333v512c0 46.933-38.4 85.333-85.333 85.333zM768 362.667l-170.667 136.533v-136.533h-341.333v341.333h341.333v-136.533l170.667 136.533v-341.333z" />
<glyph unicode="&#xe91c;" d="M929.838 647.896c0 0-8.827 63.263-33.838 91.218-32.368 36.782-69.15 36.782-85.333 38.253-119.173 8.827-298.667 10.298-298.667 10.298s-179.495-1.472-298.667-10.298c-16.183-1.472-52.967-2.943-85.333-38.253-26.483-27.955-33.84-91.218-33.84-91.218s-8.827-75.035-8.827-150.070v-69.148c0-75.035 8.827-148.597 8.827-148.597s8.828-63.265 33.84-91.22c32.367-36.78 75.033-35.308 94.162-39.723 67.677-7.357 289.838-8.828 289.838-8.828s179.493 0 298.667 10.3c16.183 1.472 52.965 2.943 85.333 38.252 25.012 27.955 33.838 91.22 33.838 91.22s8.828 75.033 8.828 148.597v69.148c0 75.035-8.828 150.070-8.828 150.070z" />
<glyph unicode="&#xe91d;" d="M409.012 612.586v-319.265l279.54 155.955z" />
<glyph unicode="&#xe91e;" glyph-name="ic_mail_24px" d="M853.333 789.333h-682.667c-46.933 0-84.907-38.4-84.907-85.333l-0.427-512c0-46.933 38.4-85.333 85.333-85.333h682.667c46.933 0 85.333 38.4 85.333 85.333v512c0 46.933-38.4 85.333-85.333 85.333zM853.333 618.667l-341.333-213.333-341.333 213.333v85.333l341.333-213.333 341.333 213.333v-85.333z" />
</font>
</defs>
</svg>
